<svg id="Layer_1" data-name="Layer 1" xmlns="http://www.w3.org/2000/svg" viewBox="0 0 88 26"><defs><style>.cls-1{fill:#1a1a1a;}</style></defs><title>logo-black</title><path class="cls-1" d="M11.3,2.89A10.11,10.11,0,1,0,21.42,13,10.11,10.11,0,0,0,11.3,2.89ZM17.68,15a3.84,3.84,0,0,1-3.83,3.83h-.2A4.72,4.72,0,0,1,9,15H9L9,14.16V9.9A1.25,1.25,0,0,0,7.7,8.66,1.26,1.26,0,0,0,6.46,9.9v4.36a.77.77,0,0,1-1.31.54.8.8,0,0,1-.22-.54V9.9A2.77,2.77,0,0,1,7.7,7.13h0A2.77,2.77,0,0,1,10.48,9.9v.63a4.7,4.7,0,0,1,3.15-1.22H14a4.13,4.13,0,0,1,2.89,1.2l.09.09a.77.77,0,0,1,0,1l-.05.06a.74.74,0,0,1-1,0,2.77,2.77,0,0,0-2-.82H13.7a3.22,3.22,0,0,0-3.22,3.22v.06a3.21,3.21,0,0,0,3.21,3.21h.16a2.3,2.3,0,0,0,2.3-2.3H13.73a.77.77,0,0,1-.77-.77.8.8,0,0,1,.22-.54.77.77,0,0,1,.55-.23h2.52a1.43,1.43,0,0,1,1.43,1.43V15h0Z"/><path class="cls-1" d="M35.49,8.07a5.92,5.92,0,0,0-2.24-1.13,10.78,10.78,0,0,0-2.89-.36c-.51,0-1.11,0-1.81.06a15.79,15.79,0,0,0-2,.24V19a14.15,14.15,0,0,0,2,.26c.67,0,1.25.06,1.76.06a10.47,10.47,0,0,0,3-.39,6.16,6.16,0,0,0,2.26-1.18,5.21,5.21,0,0,0,1.42-2,7.16,7.16,0,0,0,.5-2.81,7.37,7.37,0,0,0-.5-2.89A5,5,0,0,0,35.49,8.07Zm-2,7.78a4.09,4.09,0,0,1-3.11,1.06h-.62a3.13,3.13,0,0,1-.46,0V9a5,5,0,0,1,.58,0h.59a4.11,4.11,0,0,1,3.07,1,4.12,4.12,0,0,1,1,3A4,4,0,0,1,33.52,15.85Z"/><path class="cls-1" d="M42.8,9.47a4.39,4.39,0,0,0-1.67.32,4.1,4.1,0,0,0-1.45,1,4.88,4.88,0,0,0-1,1.57,5.72,5.72,0,0,0-.39,2.2,6,6,0,0,0,.3,1.93A4.09,4.09,0,0,0,39.5,18a4.34,4.34,0,0,0,1.56,1,5.91,5.91,0,0,0,2.21.37,8.54,8.54,0,0,0,1,0l.94-.13c.29-.06.56-.12.8-.19a3.81,3.81,0,0,0,.57-.22l-.36-2.17a5.49,5.49,0,0,1-1.16.33,7.64,7.64,0,0,1-1.44.14,3,3,0,0,1-1.83-.49A1.78,1.78,0,0,1,41,15.31h6.06c0-.14,0-.3,0-.49s0-.36,0-.51A5.07,5.07,0,0,0,46,10.69,4.21,4.21,0,0,0,42.8,9.47Zm-1.77,4a3.29,3.29,0,0,1,.17-.67,1.94,1.94,0,0,1,.33-.58,1.61,1.61,0,0,1,.54-.41,2,2,0,0,1,1.55,0,1.66,1.66,0,0,1,.52.42,1.57,1.57,0,0,1,.31.57,3,3,0,0,1,.11.66Z"/><path class="cls-1" d="M54.47,14.72a3.53,3.53,0,0,0-.9-.68,10,10,0,0,0-1.46-.64c-.28-.11-.52-.21-.7-.3a3.1,3.1,0,0,1-.44-.25.63.63,0,0,1-.22-.25.78.78,0,0,1,0-.28c0-.47.42-.7,1.25-.7a5.7,5.7,0,0,1,1.23.12,10.51,10.51,0,0,1,1,.29L54.66,10a7.55,7.55,0,0,0-1.25-.33,8.88,8.88,0,0,0-1.65-.15,4.24,4.24,0,0,0-2.71.77,2.51,2.51,0,0,0-1,2.1,3.09,3.09,0,0,0,.2,1.16,2.66,2.66,0,0,0,.55.84,3.52,3.52,0,0,0,.87.6c.35.16.72.33,1.14.48A7.66,7.66,0,0,1,52,16a.68.68,0,0,1,.39.56.55.55,0,0,1-.31.56,2.59,2.59,0,0,1-1,.14,6.9,6.9,0,0,1-1.41-.15,8.37,8.37,0,0,1-1.4-.42l-.45,2.17a8.88,8.88,0,0,0,1.16.36,8.69,8.69,0,0,0,2.09.21,5.3,5.3,0,0,0,3-.71,2.39,2.39,0,0,0,1-2.11,3.59,3.59,0,0,0-.14-1A2.06,2.06,0,0,0,54.47,14.72Z"/><path class="cls-1" d="M57.55,5.41a1.64,1.64,0,0,0-1.12.42A1.47,1.47,0,0,0,56,7a1.47,1.47,0,0,0,.48,1.16,1.7,1.7,0,0,0,2.24,0A1.47,1.47,0,0,0,59.15,7a1.47,1.47,0,0,0-.48-1.16A1.64,1.64,0,0,0,57.55,5.41Z"/><rect class="cls-1" x="56.22" y="9.72" width="2.67" height="9.44"/><path class="cls-1" d="M66.93,9.66l-1-.11c-.34,0-.68-.05-1-.05a5.88,5.88,0,0,0-2,.33,4.18,4.18,0,0,0-1.51.95,3.91,3.91,0,0,0-.94,1.46,5.21,5.21,0,0,0-.33,1.89,4.64,4.64,0,0,0,1,3.24,3.81,3.81,0,0,0,3,1.15,5.24,5.24,0,0,0,1-.09,4.57,4.57,0,0,0,.88-.3v.34a1.77,1.77,0,0,1-.47,1.29,2.15,2.15,0,0,1-1.62.5,7.45,7.45,0,0,1-1.57-.14,8.06,8.06,0,0,1-1.32-.39L60.58,22a10.11,10.11,0,0,0,1.6.4,10,10,0,0,0,1.72.15,5.08,5.08,0,0,0,3.63-1.12A4.5,4.5,0,0,0,68.71,18V10l-.82-.21C67.59,9.77,67.27,9.71,66.93,9.66ZM66,16a2.49,2.49,0,0,1-.61.25,2.39,2.39,0,0,1-.77.11c-1.2,0-1.81-.75-1.81-2.24a2.89,2.89,0,0,1,.52-1.78,1.86,1.86,0,0,1,1.58-.7,5.78,5.78,0,0,1,.63,0l.46.06Z"/><path class="cls-1" d="M77.66,10.7a2.9,2.9,0,0,0-1.27-.88,5.44,5.44,0,0,0-2-.32,14.91,14.91,0,0,0-2.26.17,16.6,16.6,0,0,0-1.75.37v9.11h2.67V11.87c.17,0,.36,0,.57-.06l.61,0a1.41,1.41,0,0,1,1.28.54,3.69,3.69,0,0,1,.34,1.83v5h2.67V13.82a7.26,7.26,0,0,0-.2-1.75A3.5,3.5,0,0,0,77.66,10.7Z"/><path class="cls-1" d="M86.67,15.54a2.16,2.16,0,0,0-.46-.82A3.78,3.78,0,0,0,85.3,14a10.31,10.31,0,0,0-1.45-.64c-.29-.11-.53-.21-.71-.3a3.81,3.81,0,0,1-.44-.25.63.63,0,0,1-.22-.25.78.78,0,0,1,0-.28c0-.47.42-.7,1.26-.7a5.67,5.67,0,0,1,1.22.12,10.51,10.51,0,0,1,1,.29L86.39,10a7.55,7.55,0,0,0-1.25-.33,8.88,8.88,0,0,0-1.65-.15,4.26,4.26,0,0,0-2.71.77,2.51,2.51,0,0,0-1,2.1A3.09,3.09,0,0,0,80,13.5a2.53,2.53,0,0,0,.56.84,3.52,3.52,0,0,0,.87.6c.34.16.72.33,1.14.48a7.92,7.92,0,0,1,1.2.55.68.68,0,0,1,.39.56.56.56,0,0,1-.3.56,2.62,2.62,0,0,1-1,.14,6.92,6.92,0,0,1-1.42-.15,8.37,8.37,0,0,1-1.4-.42l-.45,2.17a8.88,8.88,0,0,0,1.16.36,8.69,8.69,0,0,0,2.09.21,5.3,5.3,0,0,0,3-.71,2.39,2.39,0,0,0,1-2.11A3.59,3.59,0,0,0,86.67,15.54Z"/></svg>