<svg width="88" height="26" viewBox="0 0 88 26" fill="none" xmlns="http://www.w3.org/2000/svg">
<path fill-rule="evenodd" clip-rule="evenodd" d="M21.6771 12.8287C21.6771 18.0044 17.4961 22.2001 12.3386 22.2001C7.18101 22.2001 3 18.0044 3 12.8287C3 7.653 7.18101 3.45728 12.3386 3.45728C17.4961 3.45728 21.6771 7.653 21.6771 12.8287ZM18.611 14.6145C18.611 16.4771 16.9223 17.983 14.8402 17.983H14.6514C12.3806 17.983 10.4926 16.5266 10.094 14.6046L10.0153 13.8467V10.1116C10.0153 9.51222 9.46992 9.02181 8.79339 9.02181C8.45775 9.02181 8.14832 9.14565 7.92806 9.33884C7.70779 9.53699 7.57144 9.80944 7.57144 10.1067V13.9259C7.57144 14.2975 7.23579 14.5996 6.81624 14.5996C6.60646 14.5996 6.41766 14.5253 6.28131 14.4015C6.14495 14.2826 6.06104 14.1142 6.06104 13.9309V10.1116C6.06104 8.76422 7.28299 7.67442 8.79339 7.67442C10.3038 7.67442 11.5257 8.76422 11.5257 10.1116V10.6615C12.3439 9.99768 13.4347 9.59148 14.6304 9.59148H14.9608C16.0307 9.59148 17.0534 9.96796 17.8086 10.6417L17.8925 10.716C18.0131 10.8349 18.0865 10.9934 18.0865 11.1667C18.0865 11.3352 18.0183 11.4937 17.8977 11.6126L17.84 11.6621C17.5568 11.9147 17.0953 11.9147 16.8121 11.6621C16.5499 11.4293 16.2457 11.251 15.9153 11.1271C15.5849 11.0033 15.2231 10.9389 14.856 10.9389H14.6934C12.9417 10.9389 11.5257 12.2021 11.5257 13.7625V13.817C11.5257 15.3724 12.9365 16.6356 14.6829 16.6356H14.8402C16.0884 16.6356 17.1058 15.734 17.1058 14.6145H14.7248C14.3105 14.6145 13.9696 14.3123 13.9696 13.9408C13.9696 13.7526 14.0536 13.5891 14.1899 13.4652C14.3263 13.3414 14.5151 13.2671 14.7248 13.2671H17.2055C17.9816 13.2671 18.6162 13.8318 18.6162 14.5253L18.611 14.6145ZM54.6346 16.0193C54.6346 15.1615 54.664 14.3621 54.7227 13.6208C54.76 13.1503 54.8052 12.6754 54.8582 12.1963C54.9109 11.7207 55.316 11.3653 55.7946 11.3653C56.2731 11.3653 56.678 11.7207 56.7329 12.1961C56.7882 12.6753 56.8376 13.1502 56.8811 13.6208C56.9399 14.3621 56.9692 15.1615 56.9692 16.0193V17.6951C56.9692 18.3398 56.4466 18.8625 55.8019 18.8625C55.1572 18.8625 54.6346 18.3398 54.6346 17.6951V16.0193ZM54.179 7.99175C54.179 7.08601 54.9107 6.35175 55.8132 6.35175C56.7158 6.35175 57.4475 7.08601 57.4475 7.99175C57.4475 8.8975 56.7158 9.63175 55.8132 9.63175C54.9107 9.63175 54.179 8.8975 54.179 7.99175ZM28.3528 18.5541H26.3473C25.8204 18.5541 25.4125 18.1189 25.4125 17.5968V7.32843C25.4125 6.7889 25.8204 6.3712 26.3473 6.3712H28.3528C31.6329 6.3712 34.2842 9.10364 34.2842 12.4452C34.2842 15.8216 31.6329 18.5541 28.3528 18.5541ZM28.3528 8.30305H27.299V16.6222H28.3528C30.5961 16.6048 32.3977 14.76 32.3977 12.4452C32.3977 10.1653 30.5961 8.30305 28.3528 8.30305ZM43.1909 17.3882C42.2946 18.2316 41.2153 18.6252 39.9166 18.6252C37.4106 18.6065 35.4716 16.4885 35.4534 13.9395C35.4716 11.3905 37.4106 9.25378 39.9166 9.25378C42.2946 9.25378 44.1786 11.0718 44.325 13.6021V13.6958C44.325 13.7333 44.325 13.827 44.3067 13.8645C44.2518 14.3144 43.8677 14.6142 43.3555 14.6142H37.5386C37.6301 15.0453 37.8313 15.5326 38.1606 15.8513C38.5447 16.3011 39.2764 16.6385 39.9166 16.6947C40.5751 16.7509 41.3617 16.5822 41.819 16.2261C42.2031 15.8138 42.9531 15.87 43.1909 16.1699C43.4287 16.4323 43.6116 16.9946 43.1909 17.3882ZM42.6238 13.0211C42.4409 12.2714 41.508 11.1656 39.9166 11.0344C38.3618 11.1093 37.5935 12.2526 37.4472 13.0211H42.6238ZM45.8533 17.3319C46.6201 17.9317 47.7703 18.6065 49.2654 18.6252C50.2047 18.6252 51.0673 18.3441 51.7574 17.8755C52.4475 17.3882 52.9651 16.6197 52.9651 15.7013C52.9651 15.2702 52.8309 14.8392 52.6009 14.4643C52.275 13.9395 51.7574 13.5834 51.2399 13.3585C50.684 13.0961 50.0897 12.9274 49.4571 12.8149H49.438L49.4188 12.7962C48.767 12.6837 48.2686 12.515 48.0195 12.3464C47.8853 12.2714 47.8278 12.1964 47.8086 12.1589C47.7703 12.1027 47.7703 12.084 47.7703 12.009C47.7703 11.9153 47.8278 11.7466 48.077 11.5779C48.3262 11.3905 48.7479 11.2405 49.2271 11.2405C49.8405 11.2405 50.3772 11.5404 50.9907 11.934C51.4699 12.2526 52.1025 12.1214 52.4092 11.6716C52.6967 11.203 52.5625 10.5845 52.1025 10.2846C51.4891 9.8723 50.5498 9.25378 49.2271 9.25378C48.3453 9.25378 47.5402 9.49744 46.8693 9.94727C46.2367 10.4158 45.7383 11.1468 45.7383 12.009C45.7383 12.4401 45.8533 12.8524 46.0642 13.1898C46.4092 13.6958 46.8693 14.0332 47.3869 14.2769C47.8853 14.5018 48.4603 14.6517 49.0546 14.7642H49.0737C49.7638 14.8954 50.3389 15.1016 50.6073 15.289C50.7606 15.3827 50.8373 15.4577 50.8565 15.5139C50.8948 15.5701 50.914 15.6076 50.914 15.7013C50.914 15.8513 50.8373 16.0387 50.5689 16.2636C50.2622 16.451 49.783 16.6197 49.2654 16.6197C48.5178 16.6385 47.6552 16.2074 47.1568 15.795C46.7351 15.4389 46.0642 15.4952 45.7192 15.945C45.3741 16.3573 45.4316 16.9946 45.8533 17.3319ZM66.8085 13.5997V10.1666C66.8085 9.66624 66.4058 9.25218 65.8805 9.25218C65.4253 9.25218 65.0401 9.56272 64.9525 9.97678C64.3222 9.52822 63.5167 9.25218 62.6062 9.25218C61.4506 9.25218 60.3825 9.7525 59.6295 10.5288C58.8766 11.3397 58.4039 12.4093 58.4039 13.5997C58.4039 14.8074 58.8766 15.877 59.6295 16.6361C60.3825 17.447 61.4506 17.9473 62.6062 17.9473C63.4642 17.9473 64.2696 17.6885 64.9 17.2572C64.6724 18.3096 63.7443 19.1032 62.6062 19.1032C62.2385 19.1032 61.9058 19.017 61.6081 18.8617C61.1179 18.6547 60.5751 18.8272 60.3474 19.293C60.1023 19.7588 60.3124 20.3281 60.7677 20.5352C61.3105 20.8112 61.9583 20.9665 62.6062 20.9665C64.935 20.9665 66.8085 19.086 66.8085 16.8259V13.617V13.5997ZM64.2696 15.3767C63.8144 15.8425 63.2716 16.0841 62.6062 16.0841C61.9934 16.0841 61.4155 15.8425 60.9953 15.3767C60.5751 14.9799 60.2949 14.3243 60.2949 13.5997C60.2949 12.9097 60.5751 12.2541 60.9953 11.84C61.4155 11.357 61.9934 11.0982 62.6062 11.0982C63.2716 11.0982 63.8144 11.357 64.2696 11.84C64.6548 12.2541 64.935 12.9097 64.935 13.5997C64.935 14.3243 64.6548 14.9799 64.2696 15.3767ZM70.0223 9.83481C70.627 9.4787 71.3727 9.25378 72.1588 9.25378C74.4968 9.25378 76.3712 11.0344 76.3712 13.1523V17.6318C76.3712 18.1754 75.9076 18.6252 75.3231 18.6252C74.7588 18.6252 74.2549 18.1754 74.2549 17.6318V13.1523C74.2549 12.1027 73.3076 11.2593 72.1588 11.2593C71.0301 11.2593 70.1432 12.1027 70.1432 13.1523V17.6318C70.1432 17.6881 70.1432 17.7443 70.1029 17.8193C70.0022 18.2691 69.5587 18.6252 69.0347 18.6252C68.4301 18.6252 67.9665 18.1754 67.9665 17.6318V13.1523V10.2472C67.9665 9.70361 68.4301 9.25378 69.0347 9.25378C69.458 9.25378 69.8409 9.4787 70.0223 9.83481ZM77.8883 17.3303C78.6551 17.9301 79.8052 18.6049 81.3004 18.6236C82.2397 18.6236 83.1023 18.3425 83.7924 17.8739C84.4825 17.3866 85 16.6181 85 15.6997C85 15.2686 84.8658 14.8375 84.6358 14.4627C84.3099 13.9379 83.7924 13.5818 83.2748 13.3569C82.7189 13.0945 82.1247 12.9258 81.4921 12.8133H81.4729L81.4537 12.7946C80.802 12.6821 80.3036 12.5134 80.0544 12.3448C79.9202 12.2698 79.8627 12.1948 79.8435 12.1573C79.8052 12.1011 79.8052 12.0824 79.8052 12.0074C79.8052 11.9137 79.8627 11.745 80.1119 11.5763C80.3611 11.3889 80.7828 11.2389 81.2621 11.2389C81.8755 11.2389 82.4122 11.5388 83.0256 11.9324C83.5048 12.251 84.1374 12.1198 84.4441 11.67C84.7317 11.2014 84.5975 10.5829 84.1374 10.283C83.524 9.8707 82.5847 9.25218 81.2621 9.25218C80.3803 9.25218 79.5752 9.49584 78.9043 9.94567C78.2717 10.4142 77.7733 11.1452 77.7733 12.0074C77.7733 12.4385 77.8883 12.8508 78.0992 13.1882C78.4442 13.6942 78.9043 14.0316 79.4218 14.2753C79.9202 14.5002 80.4953 14.6501 81.0895 14.7626H81.1087C81.7988 14.8938 82.3739 15.0999 82.6422 15.2874C82.7956 15.3811 82.8723 15.4561 82.8914 15.5123C82.9298 15.5685 82.9489 15.606 82.9489 15.6997C82.9489 15.8497 82.8723 16.0371 82.6039 16.262C82.2972 16.4494 81.818 16.6181 81.3004 16.6181C80.5528 16.6369 79.6902 16.2058 79.1918 15.7934C78.7701 15.4373 78.0992 15.4935 77.7541 15.9434C77.4091 16.3557 77.4666 16.993 77.8883 17.3303Z" fill="white"/>
</svg>
