<svg id="Layer_1" data-name="Layer 1" xmlns="http://www.w3.org/2000/svg" viewBox="0 0 100 100"><defs><style>.cls-1{fill:#06799b;}.cls-2{fill:#fff;}</style></defs><title>logo-icon-fill</title><rect class="cls-1" x="-1.51" y="-1.13" width="102.64" height="102.64"/><path class="cls-2" d="M76.23,57.92v0c0,8.24-7.06,14.92-15.77,14.92h-.79c-9.49,0-17.39-6.46-19.05-15h0l-.33-3.35V38a5,5,0,0,0-5.1-4.84,5.25,5.25,0,0,0-3.61,1.42A4.68,4.68,0,0,0,30.08,38V54.89a3.07,3.07,0,0,1-3.15,3A3.24,3.24,0,0,1,24.7,57a2.91,2.91,0,0,1-.93-2.11V38c0-6,5.11-10.81,11.42-10.81h0C41.49,27.14,46.6,32,46.6,38v2.44a19.84,19.84,0,0,1,13-4.74H61a17.37,17.37,0,0,1,11.9,4.66l.35.33a2.88,2.88,0,0,1,0,4l-.23.21a3.15,3.15,0,0,1-4.3,0A11.91,11.91,0,0,0,65,42.45a12.22,12.22,0,0,0-4.42-.83h-.68c-7.32,0-13.25,5.61-13.25,12.53v.24c0,6.9,5.91,12.49,13.2,12.49h.66a9.22,9.22,0,0,0,9.46-8.95H60a3.07,3.07,0,0,1-3.15-3,2.9,2.9,0,0,1,.92-2.11A3.24,3.24,0,0,1,60,52H70.34a5.73,5.73,0,0,1,5.88,5.57v.4Z"/></svg>