<svg id="Layer_1" data-name="Layer 1" xmlns="http://www.w3.org/2000/svg" viewBox="0 0 182 46"><defs><style>.cls-1{fill:#fff;}</style></defs><title>logo-white-big</title><path class="cls-1" d="M23.46,2.38A20.83,20.83,0,1,0,44.28,23.21,20.84,20.84,0,0,0,23.46,2.38Zm13.13,25A7.9,7.9,0,0,1,28.7,35.3h-.4a9.71,9.71,0,0,1-9.54-7.93h0L18.6,25.6V16.83A2.56,2.56,0,0,0,16,14.28a2.56,2.56,0,0,0-2.55,2.55v9a1.58,1.58,0,1,1-3.16,0v-9A5.71,5.71,0,0,1,16,11.12h0a5.72,5.72,0,0,1,5.72,5.71v1.3a9.6,9.6,0,0,1,6.49-2.51h.69a8.41,8.41,0,0,1,6,2.46l.18.18a1.58,1.58,0,0,1,0,2.09l-.12.12a1.53,1.53,0,0,1-2.15,0,5.81,5.81,0,0,0-1.88-1.26,5.93,5.93,0,0,0-2.21-.44h-.34a6.63,6.63,0,0,0-6.63,6.63v.13a6.6,6.6,0,0,0,6.6,6.61h.33a4.74,4.74,0,0,0,4.74-4.74h-5a1.58,1.58,0,0,1,0-3.16h5.2a2.94,2.94,0,0,1,2.94,3v.21h0Z"/><path class="cls-1" d="M73.26,13.05a12.2,12.2,0,0,0-4.6-2.33,22.53,22.53,0,0,0-6-.74c-1,0-2.27,0-3.71.13a34,34,0,0,0-4.16.5V35.55a30.4,30.4,0,0,0,4.07.53c1.38.09,2.58.13,3.62.13a21.56,21.56,0,0,0,6.13-.81A12.61,12.61,0,0,0,73.28,33a10.68,10.68,0,0,0,2.93-4.1,14.94,14.94,0,0,0,1-5.8,15.38,15.38,0,0,0-1-5.95A10.34,10.34,0,0,0,73.26,13.05Zm-4.05,16c-1.39,1.45-3.52,2.18-6.41,2.18l-1.27,0-.94,0V15c.37,0,.76-.08,1.18-.1l1.22,0q4.32,0,6.32,2.07t2,6.1A8.35,8.35,0,0,1,69.21,29.08Z"/><path class="cls-1" d="M88.33,15.93a9.36,9.36,0,0,0-3.45.66,8.83,8.83,0,0,0-3,2,9.73,9.73,0,0,0-2.08,3.23,11.94,11.94,0,0,0-.8,4.53,12.83,12.83,0,0,0,.61,4,8.52,8.52,0,0,0,1.89,3.2,9,9,0,0,0,3.21,2.12,12.16,12.16,0,0,0,4.56.78,20.5,20.5,0,0,0,2.07-.11c.69-.08,1.34-.17,1.94-.28a14.7,14.7,0,0,0,1.64-.39,8.84,8.84,0,0,0,1.19-.44l-.74-4.47a11.65,11.65,0,0,1-2.39.68,16.25,16.25,0,0,1-3,.28,6.43,6.43,0,0,1-3.77-1A3.7,3.7,0,0,1,84.67,28H97.16c0-.29,0-.63.08-1s0-.74,0-1.06q0-4.91-2.4-7.44A8.57,8.57,0,0,0,88.33,15.93ZM84.67,24.2A8.46,8.46,0,0,1,85,22.82a3.56,3.56,0,0,1,.69-1.2,3.12,3.12,0,0,1,1.11-.83,3.66,3.66,0,0,1,1.59-.32,3.31,3.31,0,0,1,2.67,1.18,3.25,3.25,0,0,1,.63,1.19A5.25,5.25,0,0,1,92,24.2Z"/><path class="cls-1" d="M112.36,26.76a6.76,6.76,0,0,0-1.86-1.41,21.38,21.38,0,0,0-3-1.32c-.59-.23-1.08-.43-1.46-.62a5.85,5.85,0,0,1-.91-.52,1.19,1.19,0,0,1-.44-.5,1.38,1.38,0,0,1-.11-.59q0-1.44,2.58-1.44a11.44,11.44,0,0,1,2.53.26,19.47,19.47,0,0,1,2.09.59l1-4.28a15.43,15.43,0,0,0-2.58-.69,17.92,17.92,0,0,0-3.4-.31,8.82,8.82,0,0,0-5.58,1.59,5.18,5.18,0,0,0-2,4.32,6.34,6.34,0,0,0,.4,2.4A5,5,0,0,0,100.71,26a7,7,0,0,0,1.79,1.24c.7.34,1.48.67,2.35,1a15.93,15.93,0,0,1,2.47,1.13,1.4,1.4,0,0,1,.81,1.16,1.14,1.14,0,0,1-.62,1.15,5.47,5.47,0,0,1-2.15.3,14,14,0,0,1-2.92-.32,18.35,18.35,0,0,1-2.88-.87l-.92,4.47A16.27,16.27,0,0,0,101,36a17.37,17.37,0,0,0,4.31.45,10.79,10.79,0,0,0,6.11-1.48,4.92,4.92,0,0,0,2.16-4.35,7.68,7.68,0,0,0-.27-2.14A4.36,4.36,0,0,0,112.36,26.76Z"/><path class="cls-1" d="M118.7,7.58a3.35,3.35,0,0,0-2.31.87,3,3,0,0,0-1,2.38,3,3,0,0,0,1,2.38,3.5,3.5,0,0,0,4.62,0,3,3,0,0,0,1-2.38,3,3,0,0,0-1-2.38A3.37,3.37,0,0,0,118.7,7.58Z"/><rect class="cls-1" x="115.97" y="16.45" width="5.5" height="19.43"/><path class="cls-1" d="M138,16.34c-.69-.1-1.39-.18-2.09-.25s-1.38-.09-2.05-.09a11.84,11.84,0,0,0-4.17.69,8.55,8.55,0,0,0-3.12,1.94,8.18,8.18,0,0,0-1.94,3,10.77,10.77,0,0,0-.67,3.89,9.67,9.67,0,0,0,2.14,6.67,7.88,7.88,0,0,0,6.17,2.39,9.36,9.36,0,0,0,2.05-.21,8.55,8.55,0,0,0,1.83-.61v.7a3.67,3.67,0,0,1-1,2.66,4.45,4.45,0,0,1-3.34,1,15.71,15.71,0,0,1-3.23-.3,15,15,0,0,1-2.72-.81l-1,4.62a22.9,22.9,0,0,0,3.29.83,20.19,20.19,0,0,0,3.55.31q5.06,0,7.48-2.31t2.42-7.07V17.11c-.49-.15-1.06-.29-1.68-.42S138.71,16.43,138,16.34Zm-1.85,13.07a5.88,5.88,0,0,1-1.25.52,5.5,5.5,0,0,1-1.59.22q-3.74,0-3.73-4.62a5.92,5.92,0,0,1,1.07-3.65,3.79,3.79,0,0,1,3.25-1.44,12.4,12.4,0,0,1,1.29,0c.37,0,.69.08,1,.13Z"/><path class="cls-1" d="M160.11,18.48a6.18,6.18,0,0,0-2.6-1.83,11.37,11.37,0,0,0-4.12-.65,30.29,30.29,0,0,0-4.66.35,32.66,32.66,0,0,0-3.62.76V35.88h5.51v-15c.34-.05.74-.09,1.18-.13s.86-.06,1.26-.06a2.86,2.86,0,0,1,2.62,1.11,7.42,7.42,0,0,1,.7,3.77V35.88h5.51v-11a15,15,0,0,0-.41-3.62A7.1,7.1,0,0,0,160.11,18.48Z"/><path class="cls-1" d="M178.68,28.43a4.47,4.47,0,0,0-1-1.67,7,7,0,0,0-1.87-1.41,21.38,21.38,0,0,0-3-1.32c-.59-.23-1.08-.43-1.46-.62a5.85,5.85,0,0,1-.91-.52,1.19,1.19,0,0,1-.44-.5,1.55,1.55,0,0,1-.11-.59c0-1,.86-1.44,2.59-1.44a11.57,11.57,0,0,1,2.53.26,19.94,19.94,0,0,1,2.08.59l1-4.28a15.43,15.43,0,0,0-2.58-.69,17.92,17.92,0,0,0-3.4-.31,8.82,8.82,0,0,0-5.58,1.59,5.2,5.2,0,0,0-2,4.32,6.15,6.15,0,0,0,.41,2.4A5,5,0,0,0,166.06,26a7,7,0,0,0,1.79,1.24c.7.34,1.49.67,2.35,1a15.49,15.49,0,0,1,2.47,1.13,1.41,1.41,0,0,1,.82,1.16,1.15,1.15,0,0,1-.63,1.15,5.47,5.47,0,0,1-2.15.3,13.87,13.87,0,0,1-2.91-.32,17.73,17.73,0,0,1-2.88-.87L164,35.21a16.7,16.7,0,0,0,2.38.74,17.37,17.37,0,0,0,4.31.45,10.79,10.79,0,0,0,6.11-1.48A4.92,4.92,0,0,0,179,30.57,7.68,7.68,0,0,0,178.68,28.43Z"/></svg>