<svg width="100" height="100" viewBox="0 0 100 100" fill="none" xmlns="http://www.w3.org/2000/svg">
<path d="M0 0H100V100H0V0Z" fill="#06799B"/>
<path d="M86.9691 60.394C86.9691 71.235 77.0159 80 64.7444 80H63.6316C50.2473 80 39.1195 71.5233 36.7703 60.3364L36.3066 55.925V34.1855C36.3066 30.6968 33.0919 27.8424 29.1044 27.8424C27.1261 27.8424 25.3024 28.5632 24.0042 29.6876C22.7059 30.8409 21.9023 32.4267 21.9023 34.1567V56.3864C21.9023 58.5488 19.924 60.3075 17.4511 60.3075C16.2147 60.3075 15.1019 59.8751 14.2982 59.1543C13.4946 58.4623 13 57.482 13 56.4152V34.1855C13 26.3431 20.2022 20 29.1044 20C38.0067 20 45.2089 26.3431 45.2089 34.1855V37.3859C50.0309 33.5223 56.4603 31.1581 63.5079 31.1581H65.4553C71.7611 31.1581 77.7886 33.3494 82.2398 37.2705L82.7343 37.703C83.4453 38.395 83.878 39.3176 83.878 40.3268C83.878 41.3071 83.4762 42.2297 82.7652 42.9217L82.4252 43.21C80.7561 44.6804 78.0359 44.6804 76.3668 43.21C74.8212 41.8549 73.0284 40.8169 71.081 40.0961C69.1337 39.3753 67.0008 39.0005 64.8371 39.0005H63.8789C53.5547 39.0005 45.2089 46.3527 45.2089 55.4349V55.752C45.2089 64.8054 53.5238 72.1576 63.817 72.1576H64.7444C72.1011 72.1576 78.0977 66.9101 78.0977 60.394H64.0643C61.6224 60.394 59.6132 58.6353 59.6132 56.4728C59.6132 55.3772 60.1078 54.4258 60.9114 53.7049C61.7151 52.9841 62.8279 52.5517 64.0643 52.5517H78.685C83.2598 52.5517 87 55.8385 87 59.8751L86.9691 60.394Z" fill="white"/>
</svg>
