<svg width="182" height="46" viewBox="0 0 182 46" fill="none" xmlns="http://www.w3.org/2000/svg">
<path fill-rule="evenodd" clip-rule="evenodd" d="M44.55 23.3429C44.55 34.0256 35.9203 42.6857 25.275 42.6857C14.6297 42.6857 6 34.0256 6 23.3429C6 12.6601 14.6297 4 25.275 4C35.9203 4 44.55 12.6601 44.55 23.3429ZM38.2214 27.0288C38.2214 30.8732 34.7359 33.9814 30.4385 33.9814H30.0488C25.3618 33.9814 21.4649 30.9754 20.6422 27.0083L20.4798 25.444V17.7347C20.4798 16.4976 19.3541 15.4853 17.9577 15.4853C17.2649 15.4853 16.6263 15.741 16.1716 16.1397C15.717 16.5487 15.4356 17.111 15.4356 17.7245V25.6076C15.4356 26.3744 14.7428 26.9981 13.8768 26.9981C13.4438 26.9981 13.0541 26.8447 12.7727 26.5891C12.4913 26.3437 12.3181 25.9961 12.3181 25.6178V17.7347C12.3181 14.9537 14.8402 12.7043 17.9577 12.7043C21.0752 12.7043 23.5973 14.9537 23.5973 17.7347V18.8696C25.286 17.4996 27.5375 16.6612 30.0055 16.6612H30.6875C32.8957 16.6612 35.0065 17.4382 36.5653 18.8287L36.7384 18.9821C36.9874 19.2275 37.139 19.5547 37.139 19.9125C37.139 20.2602 36.9982 20.5874 36.7493 20.8327L36.6302 20.935C36.0457 21.4564 35.0931 21.4564 34.5086 20.935C33.9673 20.4544 33.3395 20.0864 32.6576 19.8307C31.9756 19.5751 31.2287 19.4422 30.471 19.4422H30.1354C26.52 19.4422 23.5973 22.0495 23.5973 25.2702V25.3826C23.5973 28.5931 26.5092 31.2004 30.1138 31.2004H30.4385C33.0148 31.2004 35.1148 29.3395 35.1148 27.0288H30.2004C29.3452 27.0288 28.6416 26.4051 28.6416 25.6383C28.6416 25.2497 28.8148 24.9123 29.0963 24.6567C29.3777 24.4011 29.7674 24.2477 30.2004 24.2477H35.3204C36.9225 24.2477 38.2323 25.4133 38.2323 26.8447L38.2214 27.0288ZM112.575 29.9283C112.575 28.1579 112.636 26.5078 112.757 24.9778C112.834 24.0066 112.927 23.0265 113.037 22.0377C113.145 21.056 113.982 20.3224 114.969 20.3224C115.957 20.3224 116.793 21.056 116.906 22.0372C117.02 23.0262 117.122 24.0064 117.212 24.9778C117.333 26.5078 117.394 28.1579 117.394 29.9283V33.3873C117.394 34.718 116.315 35.7967 114.985 35.7967C113.654 35.7967 112.575 34.718 112.575 33.3873V29.9283ZM111.635 13.3593C111.635 11.4898 113.145 9.97428 115.008 9.97428C116.871 9.97428 118.381 11.4898 118.381 13.3593C118.381 15.2288 116.871 16.7443 115.008 16.7443C113.145 16.7443 111.635 15.2288 111.635 13.3593ZM58.3287 35.1601H54.1894C53.1019 35.1601 52.26 34.2621 52.26 33.1844V11.9902C52.26 10.8766 53.1019 10.0144 54.1894 10.0144H58.3287C65.099 10.0144 70.5713 15.6542 70.5713 22.5514C70.5713 29.5203 65.099 35.1601 58.3287 35.1601ZM58.3287 14.0018H56.1538V31.1727H58.3287C62.9592 31.1368 66.6775 27.329 66.6775 22.5514C66.6775 17.8455 62.9592 14.0018 58.3287 14.0018ZM88.955 32.7537C87.105 34.4946 84.8774 35.307 82.1968 35.307C77.0244 35.2683 73.0223 30.8968 72.9846 25.6356C73.0223 20.3743 77.0244 15.9641 82.1968 15.9641C87.105 15.9641 90.9938 19.7167 91.2958 24.9392V25.1327C91.2958 25.21 91.2958 25.4035 91.2581 25.4808C91.1448 26.4093 90.3519 27.0283 89.2948 27.0283H77.2886C77.4774 27.918 77.8927 28.9239 78.5723 29.5815C79.3652 30.51 80.8754 31.2063 82.1968 31.3224C83.556 31.4384 85.1795 31.0903 86.1234 30.3552C86.9162 29.5041 88.4642 29.6202 88.955 30.2392C89.4458 30.7808 89.8234 31.9413 88.955 32.7537ZM87.7846 23.74C87.407 22.1925 85.4815 19.9101 82.1968 19.6393C78.9876 19.794 77.4019 22.1539 77.0999 23.74H87.7846ZM94.4504 32.6377C96.033 33.8756 98.4069 35.2683 101.493 35.307C103.432 35.307 105.212 34.7267 106.637 33.7596C108.061 32.7537 109.129 31.1676 109.129 29.272C109.129 28.3823 108.852 27.4925 108.377 26.7188C107.705 25.6356 106.637 24.9005 105.568 24.4363C104.421 23.8947 103.194 23.5465 101.889 23.3144H101.849L101.81 23.2757C100.464 23.0436 99.4356 22.6955 98.9213 22.3473C98.6443 22.1925 98.5256 22.0378 98.4861 21.9604C98.4069 21.8444 98.4069 21.8057 98.4069 21.6509C98.4069 21.4575 98.5256 21.1093 99.04 20.7612C99.5543 20.3743 100.425 20.0648 101.414 20.0648C102.68 20.0648 103.788 20.6838 105.054 21.4962C106.043 22.1539 107.349 21.8831 107.982 20.9546C108.575 19.9875 108.298 18.7108 107.349 18.0919C106.083 17.2408 104.144 15.9641 101.414 15.9641C99.5939 15.9641 97.9322 16.4671 96.5474 17.3955C95.2417 18.3627 94.213 19.8714 94.213 21.6509C94.213 22.5407 94.4504 23.3918 94.8856 24.0881C95.5978 25.1327 96.5474 25.829 97.6156 26.3319C98.6443 26.7961 99.8313 27.1056 101.058 27.3377H101.097C102.522 27.6085 103.709 28.0341 104.263 28.4209C104.579 28.6144 104.737 28.7691 104.777 28.8852C104.856 29.0012 104.896 29.0786 104.896 29.272C104.896 29.5815 104.737 29.9684 104.183 30.4326C103.55 30.8195 102.561 31.1676 101.493 31.1676C99.95 31.2063 98.1695 30.3165 97.1408 29.4655C96.2704 28.7304 94.8856 28.8465 94.1734 29.7749C93.4613 30.626 93.5799 31.9413 94.4504 32.6377ZM137.702 24.9343V17.8481C137.702 16.8155 136.871 15.9608 135.787 15.9608C134.847 15.9608 134.052 16.6018 133.872 17.4564C132.57 16.5306 130.908 15.9608 129.029 15.9608C126.643 15.9608 124.439 16.9935 122.885 18.5959C121.331 20.2695 120.355 22.4773 120.355 24.9343C120.355 27.427 121.331 29.6347 122.885 31.2015C124.439 32.8752 126.643 33.9078 129.029 33.9078C130.8 33.9078 132.462 33.3737 133.763 32.4835C133.293 34.6556 131.378 36.2936 129.029 36.2936C128.27 36.2936 127.583 36.1156 126.969 35.7951C125.957 35.3678 124.836 35.7239 124.367 36.6853C123.861 37.6468 124.294 38.8219 125.234 39.2492C126.354 39.8189 127.691 40.1394 129.029 40.1394C133.835 40.1394 137.702 36.258 137.702 31.5932V24.9699V24.9343ZM132.462 28.6021C131.522 29.5635 130.402 30.062 129.029 30.062C127.764 30.062 126.571 29.5635 125.704 28.6021C124.836 27.7831 124.258 26.4299 124.258 24.9343C124.258 23.51 124.836 22.1568 125.704 21.3022C126.571 20.3051 127.764 19.771 129.029 19.771C130.402 19.771 131.522 20.3051 132.462 21.3022C133.257 22.1568 133.835 23.51 133.835 24.9343C133.835 26.4299 133.257 27.7831 132.462 28.6021ZM144.336 17.1634C145.584 16.4284 147.123 15.9641 148.745 15.9641C153.571 15.9641 157.44 19.6393 157.44 24.0108V33.2567C157.44 34.3785 156.483 35.307 155.277 35.307C154.112 35.307 153.072 34.3785 153.072 33.2567V24.0108C153.072 21.8444 151.117 20.1035 148.745 20.1035C146.416 20.1035 144.585 21.8444 144.585 24.0108V33.2567C144.585 33.3727 144.585 33.4888 144.502 33.6435C144.294 34.572 143.379 35.307 142.297 35.307C141.049 35.307 140.092 34.3785 140.092 33.2567V24.0108V18.0145C140.092 16.8926 141.049 15.9641 142.297 15.9641C143.171 15.9641 143.961 16.4284 144.336 17.1634ZM160.571 32.6344C162.154 33.8723 164.528 35.265 167.614 35.3037C169.553 35.3037 171.333 34.7234 172.758 33.7563C174.182 32.7504 175.25 31.1643 175.25 29.2687C175.25 28.379 174.973 27.4892 174.498 26.7155C173.826 25.6323 172.758 24.8972 171.689 24.433C170.542 23.8914 169.315 23.5432 168.01 23.3111H167.97L167.931 23.2724C166.585 23.0403 165.557 22.6922 165.042 22.344C164.765 22.1892 164.647 22.0345 164.607 21.9571C164.528 21.8411 164.528 21.8024 164.528 21.6476C164.528 21.4542 164.647 21.106 165.161 20.7579C165.675 20.371 166.546 20.0615 167.535 20.0615C168.801 20.0615 169.909 20.6805 171.175 21.4929C172.164 22.1506 173.47 21.8798 174.103 20.9513C174.696 19.9841 174.419 18.7075 173.47 18.0886C172.204 17.2375 170.265 15.9608 167.535 15.9608C165.715 15.9608 164.053 16.4638 162.668 17.3922C161.363 18.3594 160.334 19.8681 160.334 21.6476C160.334 22.5374 160.571 23.3885 161.007 24.0848C161.719 25.1294 162.668 25.8257 163.737 26.3286C164.765 26.7928 165.952 27.1023 167.179 27.3344H167.218C168.643 27.6052 169.83 28.0308 170.384 28.4176C170.7 28.6111 170.858 28.7658 170.898 28.8819C170.977 28.9979 171.017 29.0753 171.017 29.2687C171.017 29.5782 170.858 29.9651 170.304 30.4293C169.671 30.8162 168.682 31.1643 167.614 31.1643C166.071 31.203 164.29 30.3132 163.262 29.4622C162.391 28.7271 161.007 28.8432 160.294 29.7716C159.582 30.6227 159.701 31.938 160.571 32.6344Z" fill="white"/>
</svg>
