<svg id="Layer_1" data-name="Layer 1" xmlns="http://www.w3.org/2000/svg" viewBox="0 0 125 31"><defs><style>.cls-1{fill:#fff;}</style></defs><title>logo-white</title><path class="cls-1" d="M15.14,1.12A14.59,14.59,0,1,0,29.72,15.71,14.59,14.59,0,0,0,15.14,1.12Zm9.19,17.53a5.52,5.52,0,0,1-5.52,5.52h-.28a6.79,6.79,0,0,1-6.68-5.55h0l-.11-1.24V11.24a1.8,1.8,0,0,0-1.8-1.79A1.75,1.75,0,0,0,8.68,10a1.78,1.78,0,0,0-.52,1.26v6.28a1.11,1.11,0,0,1-1.11,1.1,1.09,1.09,0,0,1-.78-.32,1.11,1.11,0,0,1-.33-.78V11.24a4,4,0,0,1,4-4h0a4,4,0,0,1,4,4v.91a6.74,6.74,0,0,1,4.55-1.76H19a5.88,5.88,0,0,1,4.17,1.73l.13.12a1.15,1.15,0,0,1,.28.74,1.05,1.05,0,0,1-.28.73l-.08.08a1.05,1.05,0,0,1-1.5,0,4,4,0,0,0-1.32-.88,4.08,4.08,0,0,0-1.55-.31h-.24A4.65,4.65,0,0,0,14,17.25v.08A4.62,4.62,0,0,0,18.57,22h.23a3.32,3.32,0,0,0,3.32-3.32H18.63a1.11,1.11,0,0,1,0-2.21h3.64a2.06,2.06,0,0,1,2.06,2.06v.15h0Z"/><path class="cls-1" d="M50,8.59A8.59,8.59,0,0,0,46.79,7a15.89,15.89,0,0,0-4.18-.52c-.72,0-1.59,0-2.6.1a24.64,24.64,0,0,0-2.91.34V24.35a20.76,20.76,0,0,0,2.85.37c1,.06,1.81.09,2.54.09a15.05,15.05,0,0,0,4.29-.57A8.61,8.61,0,0,0,50,22.54a7.5,7.5,0,0,0,2-2.87,10.38,10.38,0,0,0,.73-4.07,10.6,10.6,0,0,0-.73-4.16A7.16,7.16,0,0,0,50,8.59ZM47.18,19.82a5.94,5.94,0,0,1-4.49,1.53l-.89,0c-.25,0-.47,0-.66,0V10c.26,0,.53-.05.83-.06h.85a6,6,0,0,1,4.43,1.44,5.93,5.93,0,0,1,1.39,4.27A5.87,5.87,0,0,1,47.18,19.82Z"/><path class="cls-1" d="M60.57,10.61a6.55,6.55,0,0,0-2.42.47,6,6,0,0,0-2.08,1.37,6.68,6.68,0,0,0-1.46,2.26,8.16,8.16,0,0,0-.56,3.17,8.68,8.68,0,0,0,.43,2.79,5.74,5.74,0,0,0,1.32,2.24,6.11,6.11,0,0,0,2.25,1.49,8.59,8.59,0,0,0,3.19.54,14.08,14.08,0,0,0,1.45-.07c.48-.06.94-.12,1.36-.2s.8-.17,1.15-.27a5.7,5.7,0,0,0,.83-.31L65.51,21a7.89,7.89,0,0,1-1.67.48,11,11,0,0,1-2.08.19,4.46,4.46,0,0,1-2.64-.7A2.54,2.54,0,0,1,58,19h8.74c0-.2,0-.44,0-.71s0-.51,0-.73a7.31,7.31,0,0,0-1.68-5.22A6,6,0,0,0,60.57,10.61ZM58,16.41a5.29,5.29,0,0,1,.24-1,3.07,3.07,0,0,1,.48-.85,2.41,2.41,0,0,1,.78-.58,2.68,2.68,0,0,1,1.11-.22,2.42,2.42,0,0,1,1.13.24,2.31,2.31,0,0,1,.75.59,2.45,2.45,0,0,1,.44.83,3.86,3.86,0,0,1,.16,1Z"/><path class="cls-1" d="M77.4,18.19a5,5,0,0,0-1.31-1A14.71,14.71,0,0,0,74,16.28a9.25,9.25,0,0,1-1-.43,4.87,4.87,0,0,1-.64-.36.9.9,0,0,1-.31-.35,1.08,1.08,0,0,1-.08-.42c0-.67.61-1,1.81-1a8,8,0,0,1,1.78.19,13.35,13.35,0,0,1,1.46.41l.67-3a11.69,11.69,0,0,0-1.81-.48,12.25,12.25,0,0,0-2.38-.22,6.2,6.2,0,0,0-3.91,1.11,3.63,3.63,0,0,0-1.42,3,4.21,4.21,0,0,0,.29,1.68,3.21,3.21,0,0,0,.8,1.2,4.64,4.64,0,0,0,1.25.87,17.2,17.2,0,0,0,1.64.7,10.76,10.76,0,0,1,1.74.79,1,1,0,0,1,.57.81.82.82,0,0,1-.44.81,4.09,4.09,0,0,1-1.5.2,9.6,9.6,0,0,1-2-.22,11.66,11.66,0,0,1-2-.61l-.65,3.14a12.28,12.28,0,0,0,1.67.51,12.1,12.1,0,0,0,3,.31,7.52,7.52,0,0,0,4.28-1,3.45,3.45,0,0,0,1.52-3.05,5.17,5.17,0,0,0-.2-1.49A3.11,3.11,0,0,0,77.4,18.19Z"/><path class="cls-1" d="M81.84,4.76a2.38,2.38,0,0,0-1.62.61A2.11,2.11,0,0,0,79.53,7a2.11,2.11,0,0,0,.69,1.67,2.38,2.38,0,0,0,1.62.61,2.36,2.36,0,0,0,1.61-.61A2.11,2.11,0,0,0,84.14,7a2.11,2.11,0,0,0-.69-1.67A2.36,2.36,0,0,0,81.84,4.76Z"/><rect class="cls-1" x="79.92" y="10.97" width="3.85" height="13.61"/><path class="cls-1" d="M95.37,10.89c-.49-.06-1-.12-1.47-.16a14.1,14.1,0,0,0-1.43-.07,8.41,8.41,0,0,0-2.93.48,6,6,0,0,0-2.18,1.36A5.77,5.77,0,0,0,86,14.61a7.67,7.67,0,0,0-.46,2.73A6.71,6.71,0,0,0,87,22a5.52,5.52,0,0,0,4.32,1.67,6.47,6.47,0,0,0,1.43-.15,5.82,5.82,0,0,0,1.28-.42v.49a2.61,2.61,0,0,1-.68,1.86,3.15,3.15,0,0,1-2.34.73A11.1,11.1,0,0,1,88.78,26a11.62,11.62,0,0,1-1.9-.57l-.67,3.23a14.58,14.58,0,0,0,2.3.58,13.94,13.94,0,0,0,2.48.22c2.37,0,4.11-.53,5.24-1.61a6.56,6.56,0,0,0,1.7-5V11.44c-.35-.11-.74-.2-1.18-.3S95.85,11,95.37,10.89Zm-1.3,9.16a4.31,4.31,0,0,1-.88.37,3.92,3.92,0,0,1-1.11.15c-1.74,0-2.61-1.08-2.61-3.23a4.16,4.16,0,0,1,.75-2.56,2.63,2.63,0,0,1,2.27-1,8.12,8.12,0,0,1,.91,0,5.2,5.2,0,0,1,.67.09Z"/><path class="cls-1" d="M110.84,12.4A4.37,4.37,0,0,0,109,11.11a8,8,0,0,0-2.88-.45,20.05,20.05,0,0,0-3.26.25,20.76,20.76,0,0,0-2.54.53V24.58h3.86V14.08c.24,0,.52-.07.83-.09s.6,0,.88,0a2,2,0,0,1,1.83.77,5.17,5.17,0,0,1,.5,2.64v7.22h3.85V16.9a11,11,0,0,0-.28-2.54A4.93,4.93,0,0,0,110.84,12.4Z"/><path class="cls-1" d="M123.84,19.37a3.13,3.13,0,0,0-.68-1.18,4.8,4.8,0,0,0-1.3-1,14.38,14.38,0,0,0-2.1-.93c-.41-.15-.75-.3-1-.43a4.11,4.11,0,0,1-.63-.36.83.83,0,0,1-.31-.35,1.08,1.08,0,0,1-.08-.42c0-.67.6-1,1.81-1a7.87,7.87,0,0,1,1.77.19,12.19,12.19,0,0,1,1.46.41l.68-3a12,12,0,0,0-1.81-.48,12.32,12.32,0,0,0-2.38-.22,6.2,6.2,0,0,0-3.91,1.11,3.63,3.63,0,0,0-1.42,3,4.41,4.41,0,0,0,.28,1.68,3.46,3.46,0,0,0,.8,1.2,4.86,4.86,0,0,0,1.26.87,17.2,17.2,0,0,0,1.64.7,10.57,10.57,0,0,1,1.73.79,1,1,0,0,1,.57.81.8.8,0,0,1-.44.81,4,4,0,0,1-1.5.2,9.57,9.57,0,0,1-2-.22,12,12,0,0,1-2-.61l-.65,3.14a12.77,12.77,0,0,0,1.67.51,12.19,12.19,0,0,0,3,.31,7.54,7.54,0,0,0,4.28-1A3.44,3.44,0,0,0,124,20.86,5.18,5.18,0,0,0,123.84,19.37Z"/></svg>