<svg width="125" height="31" viewBox="0 0 125 31" fill="none" xmlns="http://www.w3.org/2000/svg">
<path fill-rule="evenodd" clip-rule="evenodd" d="M29.9053 15.5C29.9053 22.9558 23.8823 29 16.4526 29C9.02296 29 3 22.9558 3 15.5C3 8.04416 9.02296 2 16.4526 2C23.8823 2 29.9053 8.04416 29.9053 15.5ZM25.4884 18.0725C25.4884 20.7557 23.0557 22.925 20.0564 22.925H19.7844C16.5132 22.925 13.7934 20.827 13.2193 18.0583L13.1059 16.9664V11.5859C13.1059 10.7225 12.3202 10.016 11.3457 10.016C10.8622 10.016 10.4164 10.1944 10.0991 10.4727C9.78181 10.7581 9.58538 11.1506 9.58538 11.5788V17.0806C9.58538 17.6158 9.10187 18.0511 8.49748 18.0511C8.19529 18.0511 7.92331 17.9441 7.72689 17.7657C7.53046 17.5944 7.40958 17.3518 7.40958 17.0878V11.5859C7.40958 9.64492 9.16986 8.075 11.3457 8.075C13.5215 8.075 15.2817 9.64492 15.2817 11.5859V12.378C16.4603 11.4218 18.0317 10.8366 19.7542 10.8366H20.2302C21.7714 10.8366 23.2446 11.379 24.3325 12.3495L24.4534 12.4565C24.6271 12.6278 24.7329 12.8561 24.7329 13.1059C24.7329 13.3485 24.6347 13.5768 24.4609 13.7481L24.3778 13.8195C23.9698 14.1834 23.305 14.1834 22.897 13.8195C22.5193 13.4841 22.0811 13.2272 21.6052 13.0488C21.1292 12.8704 20.6079 12.7776 20.0791 12.7776H19.8449C17.3216 12.7776 15.2817 14.5973 15.2817 16.8451V16.9236C15.2817 19.1643 17.314 20.984 19.8298 20.984H20.0564C21.8545 20.984 23.3201 19.6853 23.3201 18.0725H19.8902C19.2934 18.0725 18.8023 17.6372 18.8023 17.102C18.8023 16.8309 18.9232 16.5954 19.1196 16.417C19.316 16.2386 19.588 16.1315 19.8902 16.1315H23.4637C24.5818 16.1315 25.4959 16.945 25.4959 17.9441L25.4884 18.0725ZM77.3823 20.0962C77.3823 18.8606 77.4246 17.7089 77.5092 16.6411C77.5629 15.9632 77.628 15.2792 77.7044 14.5891C77.7803 13.9039 78.3639 13.3919 79.0533 13.3919C79.7426 13.3919 80.3258 13.9039 80.4049 14.5887C80.4846 15.279 80.5558 15.9631 80.6185 16.6411C80.7031 17.7089 80.7454 18.8606 80.7454 20.0962V22.5104C80.7454 23.4391 79.9926 24.1919 79.0638 24.1919C78.1351 24.1919 77.3823 23.4391 77.3823 22.5104V20.0962ZM76.7259 8.53214C76.7259 7.22737 77.7799 6.16964 79.0801 6.16964C80.3803 6.16964 81.4343 7.22737 81.4343 8.53214C81.4343 9.83691 80.3803 10.8946 79.0801 10.8946C77.7799 10.8946 76.7259 9.83691 76.7259 8.53214ZM39.5219 23.7477H36.6329C35.874 23.7477 35.2864 23.1209 35.2864 22.3687V7.57658C35.2864 6.79937 35.874 6.19766 36.6329 6.19766H39.5219C44.2471 6.19766 48.0664 10.1339 48.0664 14.9476C48.0664 19.8114 44.2471 23.7477 39.5219 23.7477ZM39.5219 8.98058H38.004V20.9647H39.5219C42.7536 20.9397 45.3488 18.2821 45.3488 14.9476C45.3488 11.6632 42.7536 8.98058 39.5219 8.98058ZM60.8969 22.0682C59.6058 23.2832 58.0511 23.8502 56.1802 23.8502C52.5702 23.8232 49.777 20.7722 49.7507 17.1002C49.777 13.4282 52.5702 10.3502 56.1802 10.3502C59.6058 10.3502 62.3199 12.9692 62.5307 16.6142V16.7492C62.5307 16.8032 62.5307 16.9382 62.5043 16.9922C62.4253 17.6402 61.8719 18.0722 61.1341 18.0722H52.7546C52.8864 18.6932 53.1762 19.3952 53.6506 19.8542C54.2039 20.5022 55.2579 20.9882 56.1802 21.0692C57.1288 21.1502 58.2619 20.9072 58.9207 20.3942C59.474 19.8002 60.5544 19.8812 60.8969 20.3132C61.2395 20.6912 61.503 21.5012 60.8969 22.0682ZM60.0801 15.7772C59.8166 14.6972 58.4727 13.1042 56.1802 12.9152C53.9404 13.0232 52.8337 14.6702 52.6229 15.7772H60.0801ZM64.7324 21.9872C65.8369 22.8512 67.4938 23.8232 69.6477 23.8502C71.0007 23.8502 72.2434 23.4452 73.2375 22.7702C74.2316 22.0682 74.9772 20.9612 74.9772 19.6382C74.9772 19.0172 74.7839 18.3962 74.4525 17.8562C73.9831 17.1002 73.2375 16.5872 72.4919 16.2632C71.6911 15.8852 70.8351 15.6422 69.9238 15.4802H69.8962L69.8686 15.4532C68.9297 15.2912 68.2117 15.0482 67.8528 14.8052C67.6595 14.6972 67.5766 14.5892 67.549 14.5352C67.4938 14.4542 67.4938 14.4272 67.4938 14.3192C67.4938 14.1842 67.5766 13.9412 67.9356 13.6982C68.2946 13.4282 68.9021 13.2122 69.5924 13.2122C70.4761 13.2122 71.2493 13.6442 72.1329 14.2112C72.8233 14.6702 73.7345 14.4812 74.1764 13.8332C74.5906 13.1582 74.3973 12.2672 73.7345 11.8352C72.8509 11.2412 71.4978 10.3502 69.5924 10.3502C68.3222 10.3502 67.1624 10.7012 66.1959 11.3492C65.2846 12.0242 64.5667 13.0772 64.5667 14.3192C64.5667 14.9402 64.7324 15.5342 65.0361 16.0202C65.5332 16.7492 66.1959 17.2352 66.9415 17.5862C67.6595 17.9102 68.4879 18.1262 69.3439 18.2882H69.3715C70.3656 18.4772 71.194 18.7742 71.5806 19.0442C71.8016 19.1792 71.912 19.2872 71.9396 19.3682C71.9949 19.4492 72.0225 19.5032 72.0225 19.6382C72.0225 19.8542 71.912 20.1242 71.5254 20.4482C71.0836 20.7182 70.3932 20.9612 69.6477 20.9612C68.5707 20.9882 67.3281 20.3672 66.6101 19.7732C66.0026 19.2602 65.0361 19.3412 64.5391 19.9892C64.042 20.5832 64.1249 21.5012 64.7324 21.9872ZM94.9193 16.6107V11.665C94.9193 10.9443 94.3392 10.3478 93.5825 10.3478C92.9267 10.3478 92.3717 10.7952 92.2456 11.3917C91.3376 10.7455 90.1773 10.3478 88.8656 10.3478C87.2009 10.3478 85.6622 11.0686 84.5776 12.187C83.493 13.355 82.812 14.8959 82.812 16.6107C82.812 18.3504 83.493 19.8913 84.5776 20.9848C85.6622 22.1529 87.2009 22.8736 88.8656 22.8736C90.1016 22.8736 91.2619 22.5008 92.1699 21.8795C91.842 23.3955 90.5052 24.5388 88.8656 24.5388C88.3359 24.5388 87.8567 24.4145 87.4279 24.1908C86.7216 23.8926 85.9397 24.1411 85.6118 24.8121C85.2587 25.4832 85.5613 26.3033 86.2171 26.6015C86.9991 26.9992 87.9324 27.2228 88.8656 27.2228C92.2204 27.2228 94.9193 24.5139 94.9193 21.2582V16.6356V16.6107ZM91.2619 19.1706C90.6061 19.8416 89.8241 20.1895 88.8656 20.1895C87.9828 20.1895 87.1504 19.8416 86.5451 19.1706C85.9397 18.599 85.5361 17.6545 85.5361 16.6107C85.5361 15.6166 85.9397 14.6722 86.5451 14.0758C87.1504 13.3799 87.9828 13.0071 88.8656 13.0071C89.8241 13.0071 90.6061 13.3799 91.2619 14.0758C91.8168 14.6722 92.2204 15.6166 92.2204 16.6107C92.2204 17.6545 91.8168 18.599 91.2619 19.1706ZM99.549 11.1872C100.42 10.6742 101.494 10.3502 102.627 10.3502C105.995 10.3502 108.695 12.9152 108.695 15.9662V22.4192C108.695 23.2022 108.027 23.8502 107.185 23.8502C106.372 23.8502 105.646 23.2022 105.646 22.4192V15.9662C105.646 14.4542 104.282 13.2392 102.627 13.2392C101.001 13.2392 99.7232 14.4542 99.7232 15.9662V22.4192C99.7232 22.5002 99.7232 22.5812 99.6651 22.6892C99.5199 23.3372 98.8812 23.8502 98.1263 23.8502C97.2552 23.8502 96.5874 23.2022 96.5874 22.4192V15.9662V11.7812C96.5874 10.9982 97.2552 10.3502 98.1263 10.3502C98.736 10.3502 99.2877 10.6742 99.549 11.1872ZM110.88 21.9848C111.985 22.8488 113.642 23.8208 115.796 23.8478C117.149 23.8478 118.391 23.4429 119.385 22.7678C120.38 22.0658 121.125 20.9588 121.125 19.6358C121.125 19.0149 120.932 18.3938 120.6 17.8538C120.131 17.0978 119.385 16.5848 118.64 16.2608C117.839 15.8828 116.983 15.6398 116.072 15.4778H116.044L116.017 15.4508C115.078 15.2888 114.36 15.0458 114.001 14.8028C113.807 14.6948 113.725 14.5868 113.697 14.5328C113.642 14.4518 113.642 14.4248 113.642 14.3168C113.642 14.1818 113.725 13.9388 114.084 13.6958C114.443 13.4258 115.05 13.2098 115.74 13.2098C116.624 13.2098 117.397 13.6418 118.281 14.2088C118.971 14.6678 119.882 14.4788 120.324 13.8308C120.739 13.1558 120.545 12.2648 119.882 11.8328C118.999 11.2389 117.646 10.3478 115.74 10.3478C114.47 10.3478 113.31 10.6988 112.344 11.3468C111.433 12.0218 110.715 13.0748 110.715 14.3168C110.715 14.9378 110.88 15.5318 111.184 16.0178C111.681 16.7468 112.344 17.2328 113.089 17.5838C113.807 17.9078 114.636 18.1238 115.492 18.2859H115.519C116.514 18.4748 117.342 18.7718 117.729 19.0418C117.949 19.1768 118.06 19.2848 118.088 19.3658C118.143 19.4468 118.17 19.5008 118.17 19.6358C118.17 19.8519 118.06 20.1218 117.673 20.4458C117.232 20.7158 116.541 20.9588 115.796 20.9588C114.719 20.9858 113.476 20.3648 112.758 19.7708C112.151 19.2578 111.184 19.3388 110.687 19.9868C110.19 20.5808 110.273 21.4988 110.88 21.9848Z" fill="#06799B"/>
</svg>
