<svg width="53" height="42" viewBox="0 0 53 42" fill="none" xmlns="http://www.w3.org/2000/svg">
<path d="M52.7984 29.0054C51.9875 32.6499 48.5674 37.6702 43.6036 40.2037C41.2594 41.403 38.6918 42 35.9422 42C35.3808 42 34.8091 41.974 34.2321 41.9273C28.9928 41.4705 25.5623 39.1187 23.6028 37.2289C21.6589 35.3444 20.2295 33.0237 19.3771 30.4072C18.8573 28.8082 18.5506 27.1053 18.4831 25.335V12.2522C18.4831 8.82052 15.6919 6.03263 12.2562 6.03263C8.82052 6.03263 6.03454 8.82052 6.03454 12.2522V27.1365C6.03454 28.7978 4.68314 30.1476 3.01987 30.1476C1.3514 30.1476 0 28.7978 0 27.1365V12.247C0 5.49271 5.49918 0 12.2614 0C18.6182 0 23.8627 4.85933 24.4656 11.0529C24.4812 11.0373 24.4968 11.0269 24.5124 11.0114C28.0676 7.99505 32.8235 6.38566 37.5535 6.75427C42.1898 7.12287 45.6203 9.24104 47.689 10.9595C48.8949 11.9666 49.0612 13.7577 48.058 14.9622C47.0497 16.1666 45.2565 16.3328 44.0506 15.3308C42.6212 14.1419 40.2563 12.6727 37.1117 12.4287C32.8339 12.086 28.5406 14.1211 26.1653 17.5943C25.2869 18.8766 24.7983 20.1693 24.5228 21.2855C24.1953 22.6198 24.1798 23.6996 24.1694 24.2136C24.1642 24.4265 24.1642 24.6601 24.1746 24.9145C24.1953 25.6049 24.2681 26.42 24.45 27.2974C24.8399 29.1768 25.7079 31.3365 27.5739 33.1379C28.8629 34.3891 31.1551 35.9466 34.7363 36.2581C37.0493 36.4606 39.1648 36.0816 41.0203 35.1367C44.3885 33.4183 46.5767 30.0438 47.1588 28.1904C46.2077 28.1281 44.8874 28.1021 43.6712 28.0709C42.0547 28.0294 40.4226 28.0294 38.8217 28.0709C37.2468 28.1125 35.9422 26.8613 35.9058 25.2934C35.8694 23.7204 37.1169 22.4173 38.6866 22.381C40.3758 22.3394 42.0963 22.3394 43.8011 22.381C48.8585 22.5004 50.7505 22.5419 52.0291 24.1876C52.6788 25.0391 53.3441 26.555 52.7984 29.0054Z" fill="white"/>
</svg>
